<?xml version="1.0" standalone="no"?>
<!DOCTYPE svg PUBLIC "-//W3C//DTD SVG 20010904//EN"
 "http://www.w3.org/TR/2001/REC-SVG-20010904/DTD/svg10.dtd">
<svg version="1.0" xmlns="http://www.w3.org/2000/svg"
 width="260.000000pt" height="260.000000pt" viewBox="0 0 260.000000 260.000000"
 preserveAspectRatio="xMidYMid meet">
<metadata>
Created by potrace 1.14, written by Peter Selinger 2001-2017
</metadata>
<g transform="translate(0.000000,260.000000) scale(0.100000,-0.100000)"
fill="#000000" stroke="none">
<path d="M0 1300 l0 -1300 1300 0 1300 0 0 1300 0 1300 -1300 0 -1300 0 0
-1300z m1445 668 c160 -161 344 -348 410 -416 l120 -122 -308 -308 -307 -307
142 -142 143 -143 -95 -95 -95 -95 -412 412 c-227 227 -413 418 -413 424 0 6
138 145 306 309 l305 298 -143 144 -143 143 95 95 c52 52 97 95 100 95 3 0
136 -132 295 -292z"/>
<path d="M1216 1381 c-171 -171 -197 -201 -188 -217 12 -23 137 -144 149 -144
15 0 393 385 393 401 0 13 -139 159 -152 159 -2 0 -93 -89 -202 -199z"/>
</g>
</svg>
